<svg xmlns="http://www.w3.org/2000/svg" xmlns:xlink="http://www.w3.org/1999/xlink" version="1.1" width="375pt" height="375pt" viewBox="0 0 375 375">
<defs>
<clipPath id="clip_0">
<path transform="matrix(.24,0,0,.24,0,0)" d="M0 0H1562.5V1593.75H0Z" fill-rule="evenodd"/>
</clipPath>
<clipPath id="clip_1">
<path transform="matrix(.24,0,0,.24,0,0)" d="M0 0H1562.5V1562.5H0Z" fill-rule="evenodd"/>
</clipPath>
<clipPath id="clip_2">
<path transform="matrix(.24,0,0,.24,0,0)" d="M0 0H1562.5V1562.5H0Z" fill-rule="evenodd"/>
</clipPath>
<clipPath id="clip_3">
<path transform="matrix(.24,0,0,.24,0,0)" d="M74.513408 596.7608H365.1384V965.5108H74.513408Z" fill-rule="evenodd"/>
</clipPath>
<clipPath id="clip_4">
<path transform="matrix(.24,0,0,.24,0,0)" d="M0 0H1562.5V1562.5H0Z" fill-rule="evenodd"/>
</clipPath>
</defs>
<g clip-path="url(#clip_0)">
<path transform="matrix(.75,0,0,.75,0,0)" d="M0 0H500V510H0Z" fill="#ffffff"/>
</g>
<g clip-path="url(#clip_1)">
<path transform="matrix(.75,0,0,.75,0,0)" d="M0 0H500V500H0Z" fill="#ffffff"/>
</g>
<g clip-path="url(#clip_2)">
<path transform="matrix(.75,0,0,.75,0,0)" d="M0 0H500V500H0Z" fill="#ffffff"/>
</g>
<g clip-path="url(#clip_3)">
<path transform="matrix(.057116666,0,0,.057163158,-17.27824,117.37913)" d="M1226.2891 1553.6524C955.03128 1553.6524 735.15237 1333.7734 735.15237 1062.5859 735.15237 791.33596 955.03128 571.45706 1226.2891 571.45706 1497.4649 571.45706 1717.332 791.33596 1717.332 1062.5859 1717.332 1333.7734 1497.4649 1553.6524 1226.2891 1553.6524ZM1226.2891 452.14845C889.15237 452.14845 615.84378 725.46096 615.84378 1062.5859 615.84378 1599.1524 1216.707 1994.1211 1226.207 2000.3594H1226.2891C1226.2891 2000.3594 1226.2891 2000.3594 1226.2891 2000.3594 1226.2891 2000.3594 1836.6406 1603.4024 1836.6406 1062.5859 1836.6406 725.46096 1563.3438 452.14845 1226.2891 452.14845" fill="#6079c5"/>
<path transform="matrix(.057116666,0,0,.057163158,-17.27824,117.37913)" d="M1151.9883 1029.9492H1300.5117C1307.9531 1029.9492 1314.0078 1035.9922 1314.0078 1043.4531V1187.707C1314.0078 1195.1563 1307.9531 1201.2109 1300.5117 1201.2109H1151.9883C1144.5352 1201.2109 1138.4922 1195.1563 1138.4922 1187.707V1043.4531C1138.4922 1035.9922 1144.5352 1029.9492 1151.9883 1029.9492ZM1529.8008 960.5508 1249.4492 772.5156C1243.1484 768.2539 1234.8789 765.875 1226.207 765.875 1217.6211 765.875 1209.3516 768.2539 1203.0508 772.4219L922.7031 960.5508C922.21487 960.8711 921.6406 961.28518 921.23049 961.78128 908.79299 974.20706 910.2656 984.1953 912.3164 989.03518 914.3594 993.9414 920.33206 1002.125 937.9258 1002.125H1007.6406V1260.8633C1007.6406 1284.3516 1026.7109 1303.5039 1050.1992 1303.5039H1402.3008C1425.7891 1303.5039 1444.8477 1284.3516 1444.8477 1260.8633V1002.125H1514.5703C1532.1719 1002.125 1538.1406 993.9414 1540.1797 989.03518 1542.1563 984.1953 1543.6992 974.20706 1531.2695 961.78128 1530.7734 961.28518 1530.2774 960.8711 1529.8008 960.5508" fill="#6079c5"/>
</g>
<g clip-path="url(#clip_4)">
<text fill="#6079c5" xml:space="preserve" transform="matrix(1.0611512 0 0 1.0611512 94.342899 152.00789)" font-size="44.12" font-family="RedHatDisplay" font-weight="bold"><tspan y="41" x="0 27.877106 53.72519 78.7793">Seko</tspan></text>
<text fill="#737373" xml:space="preserve" transform="matrix(1.0611512 0 0 1.0611512 94.342899 152.00789)" font-size="44.12" font-family="RedHatDisplay" font-weight="bold"><tspan y="41" x="105.9375 116.70018 141.18087 167.3377 193.49456 218.90154">lahnya</tspan></text>
<text fill="#737373" xml:space="preserve" transform="matrix(1.0611512 0 0 1.0611512 94.342899 203.5444)" font-size="17.86" font-family="RedHatDisplay"><tspan y="16" x="0 12.894531 23.449479 33.25432 39.773027 49.845766 59.650606 66.16931 70.009098 85.13606 94.35155 104.15639 113.37187 123.83751 133.91025 149.25153 159.32427 169.1291 175.64781 179.4876 190.20328 199.3116 207.27692 213.79563 223.86837">Content Management System</tspan></text>
</g>
</svg>
